<?xml version="1.0" encoding="utf-8"?>
<!-- Generator: Adobe Illustrator 25.0.0, SVG Export Plug-In . SVG Version: 6.00 Build 0)  -->
<svg version="1.1" id="Layer_1" xmlns="http://www.w3.org/2000/svg" xmlns:xlink="http://www.w3.org/1999/xlink" x="0px" y="0px"
	 viewBox="0 0 283.26 232.94" style="enable-background:new 0 0 283.26 232.94;" xml:space="preserve">
<style type="text/css">
	.st0{fill:#00074D;}
	.st1{fill:#F4C708;}
	.st2{fill:none;stroke:#F4C708;stroke-miterlimit:10;}
	.st3{fill:none;stroke:#F4C708;stroke-width:0.75;stroke-miterlimit:10;}
	.st4{fill:none;stroke:#F4C708;stroke-width:0.75;stroke-linecap:round;stroke-miterlimit:10;}
	.st5{fill:#FFFFFF;stroke:#231F20;stroke-width:0.1703;stroke-miterlimit:10;}
	.st6{fill:#FFFFFF;}
	.st7{fill:none;stroke:#F4C708;stroke-width:2.6878;stroke-miterlimit:10;}
	.st8{fill:none;stroke:#F4C708;stroke-width:1.3439;stroke-miterlimit:10;}
	.st9{fill:none;stroke:#F4C708;stroke-width:1.1647;stroke-miterlimit:10;}
	.st10{fill:none;stroke:#F4C708;stroke-width:0.8458;stroke-miterlimit:10;}
	.st11{fill:none;stroke:#F4C708;stroke-width:2.1305;stroke-miterlimit:10;}
	.st12{fill:none;stroke:#F4C708;stroke-width:0.9084;stroke-miterlimit:10;}
	.st13{fill:none;stroke:#F4C708;stroke-width:1.9865;stroke-miterlimit:10;}
	.st14{fill:none;stroke:#F4C708;stroke-width:0.9933;stroke-miterlimit:10;}
	.st15{fill:none;stroke:#F4C708;stroke-width:0.8608;stroke-miterlimit:10;}
	.st16{fill:none;stroke:#F4C708;stroke-width:0.6252;stroke-miterlimit:10;}
	.st17{fill:none;stroke:#F4C708;stroke-width:1.5747;stroke-miterlimit:10;}
	.st18{fill:none;stroke:#F4C708;stroke-width:0.6714;stroke-miterlimit:10;}
	.st19{fill:none;stroke:#F4C708;stroke-width:0.5;stroke-miterlimit:10;}
	.st20{fill:none;stroke:#F4C708;stroke-width:0.4346;stroke-miterlimit:10;}
	.st21{fill:#0033A0;}
	.st22{fill:none;stroke:#0033A0;stroke-width:2.4602;stroke-miterlimit:10;}
	.st23{fill:none;stroke:#0033A0;stroke-width:0.8169;stroke-miterlimit:10;}
	.st24{fill:none;stroke:#0033A0;stroke-width:0.8169;stroke-linecap:round;stroke-miterlimit:10;}
	.st25{fill:none;stroke:#0033A0;stroke-width:1.6244;stroke-miterlimit:10;}
	.st26{fill:none;stroke:#0033A0;stroke-width:1.2183;stroke-miterlimit:10;}
	.st27{fill:none;stroke:#0033A0;stroke-width:1.2183;stroke-linecap:round;stroke-miterlimit:10;}
	.st28{font-family:'Optima';}
	.st29{font-size:37.1735px;}
	.st30{fill:none;stroke:#FFFFFF;stroke-width:2.4724;stroke-miterlimit:10;}
	.st31{fill:none;stroke:#FFFFFF;stroke-width:1.8543;stroke-miterlimit:10;}
	.st32{fill:none;stroke:#FFFFFF;stroke-width:1.8543;stroke-linecap:round;stroke-miterlimit:10;}
	.st33{fill:none;stroke:#CCCBE1;stroke-width:2.4724;stroke-miterlimit:10;}
	.st34{fill:none;stroke:#CCCBE1;stroke-width:1.8543;stroke-miterlimit:10;}
	.st35{fill:none;stroke:#CCCBE1;stroke-width:1.8543;stroke-linecap:round;stroke-miterlimit:10;}
	.st36{fill:#CCCBE1;}
	.st37{fill:none;stroke:#CCCBE1;stroke-miterlimit:10;}
	.st38{fill:#0033A0;stroke:#CCCBE1;stroke-miterlimit:10;}
	.st39{fill:none;stroke:#0033A0;stroke-width:2.4724;stroke-miterlimit:10;}
	.st40{fill:none;stroke:#0033A0;stroke-width:1.8543;stroke-miterlimit:10;}
	.st41{fill:none;stroke:#0033A0;stroke-width:1.8543;stroke-linecap:round;stroke-miterlimit:10;}
	.st42{fill:none;stroke:#0033A0;stroke-width:0.1898;stroke-miterlimit:10;}
	.st43{fill:none;stroke:#0033A0;stroke-width:0.1423;stroke-miterlimit:10;}
	.st44{fill:none;stroke:#0033A0;stroke-width:0.1423;stroke-linecap:round;stroke-miterlimit:10;}
	.st45{fill:#4536AB;}
	.st46{fill:#E51A5A;}
</style>
<g>
	<g>
		<text transform="matrix(1 0 0 1 48.2869 95.9063)"><tspan x="0" y="0" class="st6 st28 st29">Particle</tspan><tspan x="0" y="44.61" class="st6 st28 st29">Silo</tspan></text>
	</g>
	<g>
		<path class="st30" d="M181.12,90.36c-5.83-24.06-23.4-44.65-48.23-53.36h-0.01c-1.02-0.36-2.05-0.69-3.09-1.01
			C90,23.91,47.96,46.38,35.88,86.17c-12.08,39.79,10.38,81.84,50.18,93.92c21.8,6.61,44.27,2.86,62.12-8.43
			c1.56-0.98,3.09-2.03,4.58-3.13c10.96-8.11,19.81-19.25,25.13-32.66l0.01-0.01v-0.03h0.01c0,0,0,0,0-0.01
			c0-0.02,0.01-0.03,0.01-0.04h0.01c0-0.02,0.01-0.03,0.01-0.04c0.01-0.01,0.01-0.02,0.01-0.04c0.01-0.01,0.01-0.01,0.02-0.02
			c0-0.03,0.02-0.06,0.03-0.08c0-0.01,0.01-0.01,0.01-0.02v-0.01c0,0,0-0.01,0-0.02v-0.01l0.01-0.01c0.22-0.56,0.43-1.12,0.63-1.69
			c0.3-0.84,0.59-1.68,0.87-2.53c0.16-0.46,0.31-0.93,0.45-1.4c0.18-0.62,0.37-1.24,0.53-1.86c0.63-2.24,1.14-4.49,1.54-6.73
			c0.02-0.08,0.03-0.15,0.04-0.23c0.25-1.39,0.46-2.78,0.62-4.17c0.09-0.72,0.16-1.44,0.23-2.16c0.05-0.53,0.09-1.06,0.13-1.59
			c0.01-0.13,0.01-0.26,0.02-0.39c0-0.06,0.01-0.11,0.01-0.17C183.56,105.03,182.87,97.54,181.12,90.36z"/>
		<g>
			<path class="st31" d="M211.5,187.13c-0.4,0.54-0.82,1.06-1.26,1.58c-11.64,13.72-32.24,15.43-45.99,3.76
				c-5.04-4.3-8.48-9.79-10.21-15.72c-0.79-2.67-1.21-5.44-1.29-8.21c-0.17-5.96,1.26-11.97,4.4-17.33
				c0.96-1.66,2.08-3.24,3.34-4.72c4.7-5.51,10.8-9.1,17.36-10.63c0.02-0.02,0.02-0.02,0.05,0h0.02v-0.02h0.02
				c0.02,0.02,0.02,0.02,0.05,0.02c0.64,0.22,1.29,0.37,1.98,0.4c1.61,0.05,3.31-0.4,5.09-1.29c3.34-0.02,6.68,0.45,9.91,1.46
				c4.1,1.24,8.01,3.34,11.5,6.3C219.71,153.92,221.76,173.43,211.5,187.13z"/>
			<path class="st31" d="M206.39,103.12c-0.67,2.4-1.51,4.85-2.52,7.29c-0.4,0.99-0.82,1.95-1.26,2.89
				c-4.9,10.66-11.55,18.69-17.53,21.66c-2.4,0.02-4.8,0.32-7.12,0.87h-0.05v-0.02c-0.02,0.02-0.02,0-0.05,0
				c-0.07-0.02-0.12-0.05-0.2-0.07c-0.35-0.22-0.72-0.42-1.09-0.57c-0.05-0.02-0.07-0.05-0.12-0.07c-1.61-1.09-2.82-2.92-3.58-5.29
				c-2.3-6.9-1.04-18.52,3.86-30.48c1.31-3.21,2.79-6.21,4.4-8.95c2.69-4.65,5.69-8.58,8.73-11.42c4.67-4.47,9.42-6.48,13.1-4.97
				C209.35,76.59,210.57,88.93,206.39,103.12z"/>
			<path class="st31" d="M223.92,113.48c-7.19-2.2-14.56-2.13-21.31-0.17c-6.03,1.73-11.57,4.97-16.05,9.37
				c-3.63,3.58-6.58,7.94-8.55,12.93c-0.02,0.05-0.05,0.1-0.05,0.15l-0.02,0.02c0,0,0,0.02,0,0.05h-0.02v0.02
				c-0.35,0.89-0.67,1.78-0.94,2.72c-3.73,12.31-0.87,25.07,6.63,34.42c4.57,5.76,10.88,10.24,18.47,12.53
				c3.14,0.96,6.3,1.48,9.44,1.61c16.71,0.67,32.44-9.94,37.51-26.7C255.04,140.52,243.82,119.51,223.92,113.48z"/>
			<circle class="st31" cx="166.48" cy="156.6" r="23.69"/>
			<path class="st32" d="M81.28,66.64c1.74-2.98,3.76-5.85,6.07-8.57C99.15,44.16,115.96,37,132.88,37h0.01
				c13.64,0,27.36,4.65,38.58,14.17c8.97,7.61,15.13,17.3,18.37,27.77c2.6,8.35,3.33,17.19,2.15,25.85
				c-0.83,6.1-2.61,12.12-5.36,17.81v0.01c-0.81,1.69-1.71,3.34-2.7,4.96c-0.7,1.15-1.44,2.28-2.22,3.4
				c-1.04,1.48-2.15,2.92-3.34,4.32c-0.06,0.07-0.13,0.15-0.2,0.22c-0.04,0.06-0.09,0.12-0.15,0.18c-0.03,0.04-0.06,0.08-0.09,0.11
				c-0.01,0.01-0.01,0.02-0.02,0.02c0,0.01,0,0.01,0,0.01h-0.01v0.01h-0.01c0,0.01,0,0.01,0,0.01c-3.69,4.25-7.85,7.84-12.34,10.77
				c-0.45,0.29-0.9,0.58-1.35,0.86c-0.91,0.57-1.83,1.1-2.77,1.61c-0.93,0.52-1.87,1-2.83,1.45c-0.48,0.22-0.95,0.44-1.43,0.66
				h-0.01v0.01c-4.61,2.05-9.44,3.5-14.36,4.32c-4.3,0.73-8.67,0.98-13.04,0.76c-10.8-0.55-21.53-4.04-30.91-10.57"/>
			<path class="st32" d="M178.03,135.85c-1.25-13.82,5.12-31.2,20.87-33.14c9.2-1.13,19.1-0.36,28.84,6.28"/>
			<path class="st32" d="M218.8,120.2c-10.01,15.2-23.02,18.76-40.91,15.63"/>
			<path class="st32" d="M177.9,135.83c4.22,6.46,9.67,14.07,18.09,14.76c4.79,0.39,10.17-2.07,11.36-7.03"/>
			<path class="st32" d="M129.76,156.28c-0.02-7.58-1.62-12.36,1.01-19.69c2.31-6.44,7.28-11.97,13.63-14.6
				c12.99-5.38,27.19,2.04,33.29,13.96"/>
		</g>
		<g>
			<g>
				<path class="st6" d="M177.86,135.84c-5.86,6.77-12.98,11.92-20.69,15.35c0.96-1.66,2.08-3.24,3.34-4.72
					C165.2,140.96,171.31,137.37,177.86,135.84z"/>
				<path class="st6" d="M186.56,122.66c-2.1,4.45-4.85,8.68-8.18,12.61c-0.12,0.15-0.27,0.32-0.42,0.47c0-0.05,0.02-0.1,0.05-0.15
					C179.99,130.6,182.93,126.25,186.56,122.66z"/>
				<path class="st6" d="M193.21,135.94c-0.1,0.02-0.22,0.02-0.32,0.05c-4.03,0.59-8.13,0.69-12.16,0.22
					c-0.91-0.1-1.83-0.22-2.72-0.37c-0.02,0-0.02,0-0.05-0.02c2.32-0.54,4.72-0.84,7.12-0.87
					C187.82,134.92,190.54,135.24,193.21,135.94z"/>
				<path class="st6" d="M188.61,148.13c-0.96-0.62-1.85-1.31-2.69-2.08c-3.21-2.92-5.64-6.58-7.99-10.21
					c1.36,0.74,2.67,1.63,3.88,2.67C184.98,141.18,187.25,144.52,188.61,148.13z"/>
				<polyline class="st6" points="177.93,135.84 177.91,135.84 177.91,135.81 				"/>
				<path class="st6" d="M177.86,135.79c-0.07-0.02-0.12-0.05-0.2-0.07c-0.05-0.02-0.1-0.07-0.17-0.1c-0.25-0.15-0.49-0.3-0.77-0.4
					c-0.05-0.02-0.1-0.05-0.15-0.07c-0.05-0.02-0.07-0.05-0.12-0.07c-1.61-1.09-2.82-2.89-3.58-5.27
					C174.62,131.73,176.25,133.76,177.86,135.79z"/>
				<path class="st6" d="M177.91,135.84v-0.02h-0.02c0,0,0-0.02-0.02-0.02"/>
			</g>
			<path class="st6" d="M183.09,112.61c-0.35,5.74-1.36,11.52-3.12,17.26c-0.59,1.93-1.24,3.81-1.95,5.66l-0.02,0.02
				c-0.02,0.05-0.05,0.1-0.05,0.15c0,0.02,0,0.05-0.02,0.07h-0.02v-0.02c-0.67-7.49,0.42-15.33,4.3-21.78
				C182.47,113.5,182.77,113.05,183.09,112.61z"/>
		</g>
	</g>
</g>
</svg>
